<svg xmlns="http://www.w3.org/2000/svg" id="Layer_2" data-name="Layer 2" viewBox="0 0 166.04 176.35"><defs><style>      .cls-1 {        fill: #231f20;      }    </style></defs><g id="Calque_1" data-name="Calque 1"><g><g><path class="cls-1" d="m0,144.5h3.52v10.99h6.18v2.66H0v-13.66Z"></path><path class="cls-1" d="m12.13,154.61h3.29v3.54h-3.29v-3.54Z"></path><path class="cls-1" d="m19.05,144.5h3.52v4.98l5.08-4.98h4.09l-6.58,6.47,7.25,7.19h-4.41l-5.43-5.38v5.38h-3.52v-13.66Z"></path><path class="cls-1" d="m33.76,154.61h3.29v3.54h-3.29v-3.54Z"></path><path class="cls-1" d="m58.03,157.4c-.65.33-1.32.59-2.02.76-.7.17-1.43.26-2.2.26-2.27,0-4.08-.64-5.41-1.91s-1.99-3-1.99-5.17.67-3.91,1.99-5.18,3.13-1.91,5.41-1.91c.76,0,1.49.09,2.2.26.7.17,1.38.42,2.02.76v2.83c-.65-.45-1.3-.77-1.93-.98-.63-.21-1.3-.31-2-.31-1.26,0-2.24.4-2.96,1.21-.72.81-1.08,1.92-1.08,3.33s.36,2.51,1.08,3.32,1.71,1.21,2.96,1.21c.7,0,1.37-.1,2-.31.63-.21,1.28-.53,1.93-.98v2.83Z"></path><path class="cls-1" d="m67.19,144.25c2.2,0,3.92.63,5.16,1.88,1.24,1.26,1.87,2.99,1.87,5.21s-.62,3.94-1.87,5.19c-1.24,1.26-2.96,1.88-5.16,1.88s-3.91-.63-5.15-1.88c-1.25-1.26-1.87-2.99-1.87-5.19s.62-3.95,1.87-5.21c1.25-1.26,2.96-1.88,5.15-1.88Zm0,2.55c-1.07,0-1.91.4-2.5,1.19-.59.79-.89,1.91-.89,3.35s.3,2.54.89,3.34c.59.79,1.42,1.19,2.5,1.19s1.92-.4,2.51-1.19c.59-.79.89-1.91.89-3.34s-.3-2.56-.89-3.35c-.59-.79-1.43-1.19-2.51-1.19Z"></path><path class="cls-1" d="m86.38,144.93v2.89c-.75-.34-1.48-.59-2.2-.76-.71-.17-1.39-.26-2.02-.26-.84,0-1.46.12-1.87.35-.4.23-.6.59-.6,1.08,0,.37.14.65.41.86s.76.38,1.48.53l1.5.3c1.52.31,2.6.77,3.24,1.39.64.62.96,1.51.96,2.65,0,1.51-.45,2.63-1.34,3.36-.89.74-2.26,1.1-4.09,1.1-.87,0-1.73-.08-2.61-.25-.87-.17-1.74-.41-2.62-.73v-2.97c.87.46,1.71.81,2.53,1.05.81.23,1.6.35,2.36.35s1.36-.13,1.76-.38c.41-.26.61-.62.61-1.1,0-.43-.14-.76-.42-.99s-.83-.44-1.66-.62l-1.36-.3c-1.37-.29-2.36-.76-3-1.4s-.95-1.5-.95-2.59c0-1.36.44-2.41,1.32-3.14.88-.73,2.14-1.1,3.79-1.1.75,0,1.52.06,2.31.17.79.11,1.61.28,2.46.51Z"></path><path class="cls-1" d="m90.36,144.5h4.48l3.11,7.31,3.13-7.31h4.47v13.66h-3.33v-9.99l-3.15,7.36h-2.23l-3.15-7.36v9.99h-3.34v-13.66Z"></path><path class="cls-1" d="m109,144.5h9.5v2.66h-5.98v2.54h5.62v2.66h-5.62v3.13h6.18v2.66h-9.7v-13.66Z"></path><path class="cls-1" d="m120.17,144.5h12.58v2.66h-4.53v10.99h-3.52v-10.99h-4.54v-2.66Z"></path><path class="cls-1" d="m134.58,144.5h3.52v13.66h-3.52v-13.66Z"></path><path class="cls-1" d="m152.38,157.4c-.65.33-1.32.59-2.02.76-.7.17-1.43.26-2.2.26-2.27,0-4.08-.64-5.41-1.91s-1.99-3-1.99-5.17.67-3.91,1.99-5.18,3.13-1.91,5.41-1.91c.76,0,1.49.09,2.2.26.7.17,1.38.42,2.02.76v2.83c-.65-.45-1.3-.77-1.93-.98-.63-.21-1.3-.31-2-.31-1.26,0-2.24.4-2.96,1.21-.72.81-1.08,1.92-1.08,3.33s.36,2.51,1.08,3.32,1.71,1.21,2.96,1.21c.7,0,1.37-.1,2-.31.63-.21,1.28-.53,1.93-.98v2.83Z"></path><path class="cls-1" d="m165.14,144.93v2.89c-.75-.34-1.48-.59-2.2-.76-.71-.17-1.39-.26-2.02-.26-.84,0-1.46.12-1.87.35-.4.23-.6.59-.6,1.08,0,.37.14.65.41.86s.76.38,1.48.53l1.5.3c1.52.31,2.6.77,3.24,1.39.64.62.96,1.51.96,2.65,0,1.51-.45,2.63-1.34,3.36-.89.74-2.26,1.1-4.09,1.1-.87,0-1.73-.08-2.61-.25-.87-.17-1.74-.41-2.62-.73v-2.97c.87.46,1.71.81,2.53,1.05.81.23,1.6.35,2.36.35s1.36-.13,1.76-.38c.41-.26.61-.62.61-1.1,0-.43-.14-.76-.42-.99s-.83-.44-1.66-.62l-1.36-.3c-1.37-.29-2.36-.76-3-1.4s-.95-1.5-.95-2.59c0-1.36.44-2.41,1.32-3.14.88-.73,2.14-1.1,3.79-1.1.75,0,1.52.06,2.31.17.79.11,1.61.28,2.46.51Z"></path><path class="cls-1" d="m43.77,175.54c-.52.27-1.06.47-1.62.61-.56.14-1.15.21-1.76.21-1.82,0-3.26-.51-4.32-1.53-1.06-1.02-1.6-2.4-1.6-4.14s.53-3.13,1.6-4.15c1.06-1.02,2.5-1.53,4.32-1.53.61,0,1.2.07,1.76.21s1.1.34,1.62.61v2.26c-.52-.36-1.04-.62-1.54-.78-.51-.17-1.04-.25-1.6-.25-1,0-1.79.32-2.37.97-.58.64-.86,1.53-.86,2.66s.29,2.01.86,2.66c.58.64,1.37.97,2.37.97.56,0,1.09-.08,1.6-.25.51-.17,1.02-.43,1.54-.78v2.26Z"></path><path class="cls-1" d="m54.09,165.01c1.76,0,3.13.5,4.13,1.51s1.49,2.39,1.49,4.16-.5,3.15-1.49,4.16-2.37,1.51-4.13,1.51-3.13-.5-4.12-1.51c-1-1-1.5-2.39-1.5-4.16s.5-3.16,1.5-4.16c1-1,2.37-1.51,4.12-1.51Zm0,2.04c-.86,0-1.52.32-2,.95-.47.63-.71,1.53-.71,2.68s.24,2.04.71,2.67c.47.63,1.14.95,2,.95s1.53-.32,2-.95c.47-.63.71-1.52.71-2.67s-.24-2.04-.71-2.68c-.47-.63-1.14-.95-2-.95Z"></path><path class="cls-1" d="m64.84,165.21h3.58l2.49,5.85,2.5-5.85h3.58v10.92h-2.66v-7.99l-2.52,5.89h-1.79l-2.52-5.89v7.99h-2.67v-10.92Z"></path><path class="cls-1" d="m82.75,165.21h4.67c1.39,0,2.46.31,3.2.92.74.62,1.12,1.5,1.12,2.64s-.37,2.03-1.12,2.65c-.74.62-1.81.93-3.2.93h-1.86v3.79h-2.82v-10.92Zm2.82,2.04v3.05h1.56c.55,0,.97-.13,1.27-.4.3-.27.45-.64.45-1.13s-.15-.86-.45-1.13c-.3-.26-.72-.4-1.27-.4h-1.56Z"></path><path class="cls-1" d="m101.98,174.14h-4.41l-.69,1.99h-2.83l4.05-10.92h3.36l4.05,10.92h-2.83l-.69-1.99Zm-3.7-2.03h2.99l-1.49-4.35-1.5,4.35Z"></path><path class="cls-1" d="m109.95,165.21h3.15l3.97,7.49v-7.49h2.67v10.92h-3.15l-3.97-7.49v7.49h-2.67v-10.92Z"></path><path class="cls-1" d="m123.96,165.21h3.08l2.49,3.89,2.49-3.89h3.09l-4.16,6.32v4.6h-2.82v-4.6l-4.16-6.32Z"></path></g><g><path class="cls-1" d="m36.32,102.29v-58.6H14.13v80.23c61.53,0,60.72.27,76.67.08l-17.38-21.38c-16.32-.09-34.25-.33-37.1-.33Z"></path><path class="cls-1" d="m137.23,0H26.1q-12.31.01-12.32,12.12v15.8h6.21c16.95.01,10.95.13,27.87-.08,4.04-.04,5.23,1.2,5.17,5.18-.19,14.73-.09,29.47-.07,44.21,0,1.69.19,3.38.36,6.38,2.01-2.48,3.08-3.76,4.11-5.09,12.19-15.61,24.35-31.25,36.63-46.82,1.08-1.36,2.73-3.11,4.19-3.19,7.37-.32,14.74-.15,23.5-.15-15.06,18.37-29.26,35.68-43.57,53.13,3.41,4.03,6.73,7.96,10.08,11.93,3.83,4.54,7.68,9.1,11.49,13.6,4.75,5.63,9.49,11.24,14.27,16.89.09-.07.14-.12.22-.2v.2h29.84V0h-6.87Z"></path></g></g></g></svg>